<?xml version="1.0" encoding="UTF-8"?>
<svg id="_레이어_1" data-name="레이어 1" xmlns="http://www.w3.org/2000/svg" viewBox="0 0 30 30">
  <defs>
    <style>
      .cls-1 {
        fill: #808080;
        stroke: #000;
        stroke-linecap: round;
        stroke-linejoin: round;
      }
    </style>
  </defs>
  <path class="cls-1" d="m15,6.98v12.94s-1.02-1.55-5.3-1.14c-2.91.27-5.31,1.14-5.31,1.14V6.98s1.52-.48,5.31-1.14c4.71-.81,5.3,1.14,5.3,1.14Z"/>
  <path class="cls-1" d="m25.61,6.98v12.94s-2.4-.87-5.31-1.14c-4.28-.41-5.3,1.14-5.3,1.14V6.98s.59-1.95,5.3-1.14c3.79.66,5.31,1.14,5.31,1.14Z"/>
  <path class="cls-1" d="m15,19.92l-1.37,1.37c-.81-.27-2.06-.47-3.93-.29-2.91.27-5.31,1.14-5.31,1.14v-2.22s2.4-.87,5.31-1.14c4.28-.41,5.3,1.14,5.3,1.14Z"/>
  <path class="cls-1" d="m25.61,19.92v2.22s-2.4-.87-5.31-1.14c-1.87-.18-3.12.02-3.93.29l-1.37-1.37s1.02-1.55,5.3-1.14c2.91.27,5.31,1.14,5.31,1.14Z"/>
  <path class="cls-1" d="m16.37,21.29s-.48.39-1.02.52c-.11.03-.23.05-.35.05s-.24-.02-.35-.05c-.55-.13-1.02-.52-1.02-.52l1.37-1.37,1.37,1.37Z"/>
</svg>