<?xml version="1.0" encoding="UTF-8"?>
<svg id="_레이어_2" data-name="레이어 2" xmlns="http://www.w3.org/2000/svg" viewBox="0 0 197.27 197.66">
  <defs>
    <style>
      .cls-1 {
        fill: #ffe150;
      }

      .cls-2 {
        fill: #242320;
      }
    </style>
  </defs>
  <g id="_레이어_1-2" data-name="레이어 1">
    <g>
      <rect class="cls-2" width="197.27" height="197.66"/>
      <path class="cls-1" d="m171.73,63.89l-68.97,68.68.71,38.38c.02.87-.68,1.58-1.55,1.58h-16.05c-.87,0-1.57-.72-1.55-1.59l.16-6.44-58.3-19.14c-.63-.21-1.07-.79-1.07-1.46,0,0,0,0,0-.01v-13.17c0-1.03.99-1.77,1.98-1.49l57.86,16.59,1.32-52.46L43.97,26.85c3.06-1.11,4.77-1.62,8-1.82,2.81-.18,4.24.1,4.24.1l30.66,45.36,1.11-43.85c.02-.84.71-1.51,1.55-1.51h9.74c.84,0,1.53.68,1.55,1.52l1.51,81.91,66.58-61.46c.9-.83,2.37-.34,2.58.86.24,1.37.46,3.17.67,5.81.3,3.76.12,7.66.04,9.12-.02.38-.18.74-.45,1Z"/>
    </g>
  </g>
</svg>